<svg width="24" height="24" viewBox="0 0 24 24" fill="none" xmlns="http://www.w3.org/2000/svg">
<g clip-path="url(#clip0_9_280)">
<path d="M8.26 21.96C5.66 21.96 3 21.27 0.51 19.89C0.0999996 19.67 -0.0900004 19.19 0.0299996 18.75C0.15 18.3 0.55 18.01 1.03 18.02C2.72 18.08 4.39 17.76 5.91 17.05C2.2 14.75 1.24 11.51 1.13 9.05999C0.99 6.10999 2.04 3.70999 2.09 3.60999C2.23 3.27999 2.55 3.04999 2.9 3.01999C3.25 2.97999 3.61 3.14999 3.82 3.43999C4.73 4.73999 5.96 5.79999 7.38 6.51999C8.51 7.08999 9.74 7.42999 11 7.51999C10.99 6.40999 11.32 5.32999 11.95 4.40999C12.58 3.47999 13.47 2.76999 14.53 2.36999C15.58 1.96999 16.72 1.89999 17.81 2.16999C18.68 2.38999 19.47 2.80999 20.13 3.39999C20.94 3.09999 21.71 2.69999 22.42 2.19999C22.76 1.95999 23.21 1.95999 23.56 2.18999C23.91 2.41999 24.07 2.84999 23.97 3.24999C23.63 4.65999 22.94 5.94999 21.97 7.01999C21.99 7.18999 22 7.34999 22 7.50999C22 12.99 19.57 17.56 15.34 20.05C13.18 21.33 10.75 21.96 8.26 21.96ZM4.96 19.53C8.21 20.37 11.54 19.97 14.33 18.33C17.93 16.21 20 12.27 20 7.50999C20 7.30999 19.98 7.08999 19.94 6.85999C19.88 6.52999 19.98 6.19999 20.22 5.96999C20.44 5.74999 20.65 5.51999 20.84 5.26999C20.61 5.34999 20.38 5.42999 20.15 5.49999C19.78 5.60999 19.37 5.49999 19.11 5.19999C18.64 4.65999 18.02 4.27999 17.33 4.10999C16.63 3.93999 15.91 3.97999 15.24 4.22999C14.57 4.48999 14 4.92999 13.6 5.52999C13.2 6.11999 12.99 6.81999 13 7.52999V8.53999C13 9.07999 12.57 9.52998 12.03 9.53999C10.13 9.59999 8.19 9.15999 6.48 8.29999C5.34 7.71999 4.29 6.95999 3.4 6.04999C2.8 8.59999 2.56 13.5 8.41 16.1C8.74 16.25 8.97 16.56 9 16.92C9.03 17.28 8.87 17.63 8.57 17.84C7.44 18.6 6.23 19.17 4.96 19.53Z" fill="#151313"/>
</g>
<defs>
<clipPath id="clip0_9_280">
<rect width="24" height="24" fill="white"/>
</clipPath>
</defs>
</svg>
