<svg width="120" height="120" viewBox="0 0 120 120" fill="none" xmlns="http://www.w3.org/2000/svg">
<g clip-path="url(#clip0_9_193)">
<path d="M56.8569 33.2178C55.6758 23.0962 54.4287 12.4093 54.4287 0H65.5713C65.5713 12.2699 64.3302 22.9432 63.1506 33.0762C62.1897 41.334 61.2705 49.233 61.0998 57.345C66.6948 51.5091 71.589 45.321 76.716 38.8389C83.0373 30.8469 89.7129 22.4083 98.487 13.6339L106.366 21.5131C97.6899 30.1893 89.2641 36.8583 81.2652 43.1898L81.2577 43.1955C74.7423 48.3534 68.5095 53.2872 62.655 58.9002C70.737 58.7295 78.5733 57.8151 86.7816 56.8572C96.9033 55.6758 107.591 54.4287 120 54.4287V65.5713C107.731 65.5713 97.0572 64.3296 86.9247 63.1506L86.9172 63.15C78.6612 62.1894 70.7646 61.2708 62.655 61.0998C68.487 66.6906 74.6718 71.5827 81.1497 76.7061L81.1599 76.7148C89.1522 83.0367 97.5912 89.7117 106.366 98.487L98.487 106.366C89.8107 97.6902 83.142 89.265 76.8114 81.2667L76.7964 81.246L76.7838 81.2295C71.6325 74.7243 66.7047 68.5014 61.0998 62.655C61.2705 70.767 62.1897 78.666 63.1506 86.9238C64.3302 97.0569 65.5713 107.73 65.5713 120H54.4287C54.4287 107.591 55.6758 96.9039 56.8569 86.7822L56.8593 86.7657C57.816 78.5631 58.7295 70.7316 58.9002 62.655C53.2953 68.5014 48.3675 74.7243 43.2162 81.2295L43.2036 81.246L43.1886 81.2667C36.858 89.265 30.1893 97.6902 21.5131 106.366L13.6339 98.487C22.4088 89.7117 30.8478 83.0367 38.8401 76.7148L38.8503 76.7061C45.3282 71.5827 51.513 66.6906 57.345 61.0998C49.233 61.2711 41.3337 62.19 33.0753 63.1506C22.9428 64.3296 12.2695 65.5713 0 65.5713V54.4287C12.4093 54.4287 23.0968 55.6758 33.2184 56.8572C41.4267 57.8151 49.263 58.7295 57.345 58.9002C51.4881 53.2851 45.2529 48.3498 38.7348 43.1898C30.7359 36.8583 22.31 30.1893 13.6339 21.5131L21.5131 13.6339C30.2871 22.4083 36.9627 30.8469 43.284 38.8389C48.411 45.3207 53.3052 51.5088 58.9002 57.3444C58.7295 49.2681 57.816 41.4369 56.8593 33.2343L56.8569 33.2178Z" fill="#151313" fill-opacity="0.04"/>
</g>
<defs>
<clipPath id="clip0_9_193">
<rect width="120" height="120" fill="white"/>
</clipPath>
</defs>
</svg>
