<svg width="103" height="32" viewBox="0 0 103 32" fill="none" xmlns="http://www.w3.org/2000/svg">
<g clip-path="url(#clip0_32_24)">
<path d="M15.1618 8.85808C14.8469 6.15898 14.5143 3.30915 14.5143 0H17.4857C17.4857 3.27198 17.1547 6.11819 16.8402 8.82032C16.5839 11.0224 16.3388 13.1288 16.2933 15.292C17.7853 13.7358 19.0904 12.0856 20.4576 10.357C22.1433 8.22584 23.9234 5.97556 26.2632 3.63571L28.3643 5.73683C26.0506 8.05048 23.8038 9.82888 21.6707 11.5173L21.6687 11.5188C19.9313 12.8942 18.2692 14.2099 16.708 15.7067C18.8632 15.6612 20.9529 15.4174 23.1418 15.1619C25.8409 14.8469 28.6909 14.5143 32 14.5143V17.4857C28.7282 17.4857 25.8819 17.1546 23.1799 16.8402L23.1779 16.84C20.9763 16.5838 18.8706 16.3389 16.708 16.2933C18.2632 17.7842 19.9125 19.0887 21.6399 20.455L21.6426 20.4573C23.7739 22.1431 26.0243 23.9231 28.3643 26.2632L26.2632 28.3643C23.9495 26.0507 22.1712 23.804 20.483 21.6711L20.479 21.6656L20.4757 21.6612C19.102 19.9265 17.7879 18.267 16.2933 16.708C16.3388 18.8712 16.5839 20.9776 16.8402 23.1797C17.1547 25.8818 17.4857 28.728 17.4857 32H14.5143C14.5143 28.6909 14.8469 25.841 15.1618 23.1419L15.1625 23.1375C15.4176 20.9502 15.6612 18.8618 15.7067 16.708C14.2121 18.267 12.898 19.9265 11.5243 21.6612L11.521 21.6656L11.517 21.6711C9.8288 23.804 8.05048 26.0507 5.73683 28.3643L3.63571 26.2632C5.97567 23.9231 8.22608 22.1431 10.3574 20.4573L10.3601 20.455C12.0875 19.0887 13.7368 17.7842 15.292 16.2933C13.1288 16.339 11.0223 16.584 8.82008 16.8402C6.11808 17.1546 3.27187 17.4857 0 17.4857V14.5143C3.30915 14.5143 6.15915 14.8469 8.85824 15.1619C11.0471 15.4174 13.1368 15.6612 15.292 15.7067C13.7302 14.2094 12.0674 12.8933 10.3293 11.5173C8.19624 9.82888 5.94933 8.05048 3.63571 5.73683L5.73683 3.63571C8.07656 5.97556 9.85672 8.22584 11.5424 10.357C12.9096 12.0855 14.2147 13.7357 15.7067 15.2918C15.6612 13.1382 15.4176 11.0498 15.1625 8.86248L15.1618 8.85808Z" fill="#151313"/>
</g>
<path d="M39.8078 24.1277C39.603 24.1277 39.4238 24.1021 39.2702 24.0509C39.1337 23.9997 39.0654 23.9143 39.0654 23.7949C39.0654 23.573 39.33 23.4109 39.859 23.3085C40.5076 23.189 40.9428 23.0013 41.1646 22.7453C41.4036 22.4722 41.523 22.037 41.523 21.4397V9.89406C41.523 9.31379 41.4036 8.90419 41.1646 8.66526C40.9257 8.42633 40.4734 8.23859 39.8078 8.10206C39.3129 7.99966 39.0654 7.82899 39.0654 7.59006C39.0654 7.47059 39.1252 7.38526 39.2446 7.33406C39.3812 7.28286 39.5433 7.25726 39.731 7.25726C40.1748 7.25726 40.5588 7.26579 40.883 7.28286C41.2244 7.29993 41.5486 7.31699 41.8558 7.33406C42.1801 7.33406 42.5214 7.33406 42.8798 7.33406C43.2041 7.33406 43.5028 7.33406 43.7758 7.33406C44.066 7.31699 44.3646 7.30846 44.6718 7.30846C44.9961 7.29139 45.3716 7.28286 45.7982 7.28286C46.003 7.28286 46.1566 7.30846 46.259 7.35966C46.3785 7.39379 46.4382 7.47059 46.4382 7.59006C46.4382 7.72659 46.3785 7.83753 46.259 7.92286C46.1396 7.99113 45.9518 8.05086 45.6958 8.10206C45.0473 8.25566 44.6377 8.46899 44.467 8.74206C44.3134 9.01513 44.2366 9.39913 44.2366 9.89406V14.8349C44.2366 14.9202 44.2452 15.0226 44.2622 15.1421C44.2964 15.2445 44.3476 15.2957 44.4158 15.2957C44.5012 15.2957 44.6036 15.253 44.723 15.1677C44.8596 15.0653 44.979 14.9629 45.0814 14.8605L50.1246 9.61246C50.2612 9.45886 50.3636 9.32233 50.4318 9.20286C50.5172 9.06633 50.5598 8.93833 50.5598 8.81886C50.5598 8.49459 50.3294 8.28126 49.8686 8.17886C49.6126 8.11059 49.4249 8.04233 49.3054 7.97406C49.203 7.88873 49.1518 7.77779 49.1518 7.64126C49.1518 7.53886 49.2116 7.46206 49.331 7.41086C49.4676 7.35966 49.6297 7.33406 49.8174 7.33406H51.3278C51.8569 7.33406 52.4116 7.32553 52.9918 7.30846C53.5721 7.29139 54.1182 7.27433 54.6302 7.25726C55.1422 7.24019 55.5348 7.23166 55.8078 7.23166C55.9785 7.23166 56.115 7.26579 56.2174 7.33406C56.3369 7.38526 56.3966 7.45353 56.3966 7.53886C56.3966 7.67539 56.3198 7.78633 56.1662 7.87166C56.0297 7.95699 55.8334 8.02526 55.5774 8.07646C54.8777 8.19593 54.195 8.39219 53.5294 8.66526C52.8638 8.92126 52.2494 9.27113 51.6862 9.71486C51.106 10.1927 50.5598 10.6706 50.0478 11.1485C49.5358 11.6263 49.0324 12.1213 48.5374 12.6333C48.0425 13.1282 47.5049 13.6829 46.9246 14.2973C46.771 14.4338 46.8052 14.6215 47.027 14.8605L53.1966 21.5421C53.5209 21.9005 53.794 22.1906 54.0158 22.4125C54.2548 22.6173 54.5193 22.7965 54.8094 22.9501C55.0996 23.0866 55.475 23.2061 55.9358 23.3085C56.1918 23.3767 56.3966 23.445 56.5502 23.5133C56.7038 23.5645 56.7806 23.6583 56.7806 23.7949C56.7806 23.8973 56.7038 23.9741 56.5502 24.0253C56.3966 24.0935 56.1918 24.1277 55.9358 24.1277C55.4409 24.1277 54.9886 24.1106 54.579 24.0765C54.1694 24.0594 53.7684 24.0338 53.3758 23.9997C52.9833 23.9826 52.531 23.9741 52.019 23.9741C51.6094 23.9741 51.2425 23.9826 50.9182 23.9997C50.594 24.0338 50.1417 24.0509 49.5614 24.0509C49.3737 24.0509 49.2116 24.0253 49.075 23.9741C48.9556 23.9229 48.8958 23.8375 48.8958 23.7181C48.8958 23.5133 49.1092 23.3597 49.5358 23.2573C50.082 23.1378 50.355 22.9415 50.355 22.6685C50.355 22.5661 50.3124 22.4637 50.227 22.3613C50.1588 22.2418 50.0734 22.1138 49.971 21.9773L44.979 16.3709C44.8766 16.2685 44.7657 16.1746 44.6462 16.0893C44.5438 16.0039 44.4585 15.9613 44.3902 15.9613C44.322 15.9613 44.2793 16.021 44.2622 16.1405C44.2452 16.2429 44.2366 16.3453 44.2366 16.4477C44.2366 17.2498 44.2452 18.0178 44.2622 18.7517C44.2793 19.4855 44.3049 20.3218 44.339 21.2605C44.3561 21.6189 44.4073 21.9346 44.4926 22.2077C44.578 22.4807 44.7316 22.7111 44.9534 22.8989C45.1753 23.0695 45.4996 23.2061 45.9262 23.3085C46.1822 23.3597 46.3785 23.4194 46.515 23.4877C46.6516 23.5559 46.7198 23.6583 46.7198 23.7949C46.7198 23.8973 46.643 23.9741 46.4894 24.0253C46.3529 24.0935 46.1822 24.1277 45.9774 24.1277C45.4996 24.1277 45.107 24.1106 44.7998 24.0765C44.5097 24.0423 44.2366 24.0082 43.9806 23.9741C43.7417 23.9399 43.4601 23.9229 43.1358 23.9229C42.7433 23.9229 42.3849 23.9399 42.0606 23.9741C41.7534 24.0082 41.4206 24.0423 41.0622 24.0765C40.7209 24.1106 40.3028 24.1277 39.8078 24.1277Z" fill="#151313"/>
<path d="M57.918 31.2701C57.5426 31.2701 57.1927 31.1591 56.8684 30.9373C56.5442 30.7325 56.382 30.4338 56.382 30.0413C56.382 29.717 56.4588 29.4269 56.6124 29.1709C56.766 28.9149 56.9964 28.7869 57.3036 28.7869C57.5255 28.7869 57.7388 28.8125 57.9436 28.8637C58.1655 28.9319 58.3618 28.9661 58.5324 28.9661C58.7031 28.949 58.8311 28.9063 58.9164 28.8381C59.0018 28.7869 59.0871 28.6845 59.1724 28.5309C59.3431 28.2578 59.5223 27.9335 59.71 27.5581C59.9148 27.1997 60.1282 26.7815 60.35 26.3037C60.5719 25.8258 60.8023 25.2882 61.0412 24.6909C61.1436 24.4349 61.1948 24.1618 61.1948 23.8717C61.1948 23.701 61.1778 23.5389 61.1436 23.3853C61.1095 23.2317 61.0583 23.0781 60.99 22.9245L57.9692 15.5517C57.8327 15.2274 57.6706 14.9458 57.4828 14.7069C57.2951 14.4679 57.0562 14.3058 56.766 14.2205C56.6295 14.1522 56.5015 14.0839 56.382 14.0157C56.2796 13.9474 56.2284 13.845 56.2284 13.7085C56.2284 13.6061 56.2967 13.5463 56.4332 13.5293C56.5698 13.4951 56.6807 13.4781 56.766 13.4781C57.1415 13.4781 57.4316 13.4866 57.6364 13.5037C57.8412 13.5207 58.029 13.5378 58.1996 13.5549C58.3703 13.5719 58.5922 13.5805 58.8652 13.5805C59.1895 13.5805 59.4455 13.5719 59.6332 13.5549C59.821 13.5378 60.0172 13.5207 60.222 13.5037C60.4439 13.4866 60.734 13.4781 61.0924 13.4781C61.2119 13.4781 61.3314 13.5037 61.4508 13.5549C61.5703 13.589 61.63 13.6573 61.63 13.7597C61.63 13.8962 61.5532 14.0157 61.3996 14.1181C61.246 14.2034 61.101 14.2717 60.9644 14.3229C60.7767 14.3741 60.6316 14.4679 60.5292 14.6045C60.4439 14.7239 60.4012 14.9202 60.4012 15.1933C60.4012 15.3127 60.4268 15.4493 60.478 15.6029C60.5292 15.7565 60.589 15.9101 60.6572 16.0637L62.5516 20.7485C62.5858 20.8338 62.6284 20.8765 62.6796 20.8765C62.7138 20.8765 62.7479 20.8338 62.782 20.7485L64.3948 16.3197C64.446 16.2002 64.4887 16.0466 64.5228 15.8589C64.557 15.6541 64.574 15.4834 64.574 15.3469C64.574 15.0397 64.5143 14.8178 64.3948 14.6813C64.2754 14.5277 64.1388 14.4167 63.9852 14.3485C63.8487 14.2802 63.6951 14.2034 63.5244 14.1181C63.3708 14.0157 63.294 13.8962 63.294 13.7597C63.294 13.6573 63.3538 13.589 63.4732 13.5549C63.6098 13.5037 63.7292 13.4781 63.8316 13.4781C64.1388 13.4781 64.4204 13.4951 64.6764 13.5293C64.9324 13.5634 65.2567 13.5805 65.6492 13.5805C65.9223 13.5805 66.1356 13.5719 66.2892 13.5549C66.4428 13.5378 66.5879 13.5207 66.7244 13.5037C66.861 13.4866 67.0402 13.4781 67.262 13.4781C67.3474 13.4781 67.4583 13.4951 67.5948 13.5293C67.7314 13.5463 67.7996 13.6061 67.7996 13.7085C67.7996 13.845 67.7399 13.9474 67.6204 14.0157C67.518 14.0839 67.3986 14.1522 67.262 14.2205C66.989 14.3058 66.7074 14.5021 66.4172 14.8093C66.1442 15.1165 65.9223 15.4749 65.7516 15.8845L62.142 24.4861C62.0908 24.6397 61.9799 24.9127 61.8092 25.3053C61.6556 25.6978 61.4679 26.1586 61.246 26.6877C61.0242 27.2167 60.7852 27.7714 60.5292 28.3517C60.2903 28.949 60.0514 29.5207 59.8124 30.0669C59.6418 30.4594 59.3858 30.7581 59.0444 30.9629C58.7202 31.1677 58.3447 31.2701 57.918 31.2701Z" fill="#151313"/>
<path d="M73.1158 24.3581C72.143 24.3581 71.2556 24.1362 70.4534 23.6925C69.6684 23.2317 69.0454 22.6087 68.5846 21.8237C68.1238 21.0386 67.8934 20.1426 67.8934 19.1357C67.8934 18.3847 68.0385 17.6594 68.3286 16.9597C68.6188 16.2599 69.0284 15.6285 69.5574 15.0653C70.0865 14.5021 70.7009 14.0583 71.4006 13.7341C72.1004 13.3927 72.8513 13.2221 73.6534 13.2221C74.6604 13.2221 75.5734 13.4695 76.3926 13.9645C77.2118 14.4423 77.8604 15.0738 78.3382 15.8589C78.8161 16.6439 79.055 17.5058 79.055 18.4445C79.055 19.4685 78.8332 20.4327 78.3894 21.3373C77.9457 22.2418 77.2801 22.9757 76.3926 23.5389C75.5222 24.085 74.43 24.3581 73.1158 24.3581ZM73.6534 23.4621C74.1484 23.4621 74.5921 23.3682 74.9846 23.1805C75.3772 22.9757 75.6844 22.6685 75.9062 22.2589C76.111 21.8663 76.2476 21.3885 76.3158 20.8253C76.4012 20.245 76.4438 19.6562 76.4438 19.0589C76.4438 18.2055 76.3073 17.4034 76.0342 16.6525C75.7612 15.9015 75.3857 15.2957 74.9078 14.8349C74.43 14.3741 73.8668 14.1437 73.2182 14.1437C72.8257 14.1437 72.4673 14.2119 72.143 14.3485C71.8358 14.4679 71.5542 14.6813 71.2982 14.9885C70.974 15.381 70.7606 15.893 70.6582 16.5245C70.5558 17.1389 70.5046 17.813 70.5046 18.5469C70.5046 19.3661 70.6412 20.1511 70.9142 20.9021C71.1873 21.653 71.5542 22.2674 72.015 22.7453C72.4929 23.2231 73.039 23.4621 73.6534 23.4621Z" fill="#151313"/>
<path d="M80.4988 24.0765C80.1234 24.0765 79.9356 23.9741 79.9356 23.7693C79.9356 23.6327 79.9954 23.5389 80.1148 23.4877C80.2343 23.4365 80.3708 23.3767 80.5244 23.3085C80.7804 23.2231 81.0194 23.1207 81.2412 23.0013C81.4631 22.8818 81.574 22.6429 81.574 22.2845V9.66366C81.574 9.10046 81.4972 8.67379 81.3436 8.38366C81.19 8.09353 80.8999 7.89726 80.4732 7.79486C80.3196 7.76073 80.2428 7.64126 80.2428 7.43646C80.2428 7.24873 80.3111 7.13779 80.4476 7.10366C80.8914 7.01833 81.301 6.90739 81.6764 6.77086C82.069 6.63433 82.4274 6.50633 82.7516 6.38686C83.093 6.25033 83.3916 6.13086 83.6476 6.02846C83.7671 5.97726 83.861 5.95166 83.9292 5.95166C83.9975 5.95166 84.0402 5.97726 84.0572 6.02846C84.0914 6.06259 84.1084 6.12233 84.1084 6.20766C84.1084 6.36126 84.0743 6.65993 84.006 7.10366C83.9548 7.54739 83.9292 8.19593 83.9292 9.04926V17.8557C83.9292 18.0263 83.9804 18.1117 84.0828 18.1117C84.1682 18.1117 84.2791 18.0775 84.4156 18.0093C84.5522 17.941 84.6887 17.8471 84.8252 17.7277C85.5079 17.1474 86.0882 16.6013 86.566 16.0893C87.0439 15.5773 87.3682 15.2103 87.5388 14.9885C87.6071 14.8861 87.6583 14.8093 87.6924 14.7581C87.7436 14.6898 87.7692 14.6301 87.7692 14.5789C87.7692 14.4935 87.6924 14.4167 87.5388 14.3485C87.4023 14.2631 87.2402 14.2034 87.0524 14.1693C86.8476 14.1351 86.7452 14.0498 86.7452 13.9133C86.7452 13.8109 86.7964 13.7341 86.8988 13.6829C87.0183 13.6146 87.1548 13.5805 87.3084 13.5805H88.5628C88.8359 13.5805 89.1516 13.5634 89.51 13.5293C89.8855 13.4781 90.2439 13.4269 90.5852 13.3757C90.9266 13.3245 91.1826 13.2989 91.3532 13.2989C91.5751 13.2989 91.686 13.3927 91.686 13.5805C91.686 13.6829 91.6263 13.7767 91.5068 13.8621C91.4044 13.9474 91.2594 14.0157 91.0716 14.0669C90.7644 14.1351 90.4487 14.2546 90.1244 14.4253C89.8002 14.5789 89.493 14.741 89.2028 14.9117C89.0322 15.0141 88.7676 15.2018 88.4092 15.4749C88.0508 15.7479 87.6668 16.0551 87.2572 16.3965C86.8476 16.7378 86.4636 17.0706 86.1052 17.3949C86.0028 17.4802 85.9516 17.5655 85.9516 17.6509C85.9516 17.685 85.9602 17.7191 85.9772 17.7533C86.0114 17.7874 86.037 17.8215 86.054 17.8557C86.4978 18.4018 86.95 18.9479 87.4108 19.4941C87.8716 20.0402 88.3068 20.5351 88.7164 20.9789C89.126 21.4226 89.4588 21.781 89.7148 22.0541C90.005 22.3442 90.3378 22.6002 90.7132 22.8221C91.1058 23.0439 91.43 23.2061 91.686 23.3085C91.8567 23.3597 92.0188 23.4194 92.1724 23.4877C92.3431 23.5389 92.4284 23.6327 92.4284 23.7693C92.4284 23.9741 92.2578 24.0765 91.9164 24.0765C91.1143 24.0765 90.2695 24.0594 89.382 24.0253C88.5116 24.0082 87.6412 23.9997 86.7708 23.9997C86.4466 23.9997 86.2844 23.9058 86.2844 23.7181C86.2844 23.6157 86.3271 23.5303 86.4124 23.4621C86.5148 23.3767 86.6343 23.317 86.7708 23.2829C86.9415 23.2146 87.078 23.1463 87.1804 23.0781C87.2999 22.9927 87.3596 22.8818 87.3596 22.7453C87.3596 22.6941 87.3426 22.6343 87.3084 22.5661C87.2743 22.4978 87.2231 22.421 87.1548 22.3357L84.262 18.8541C84.1938 18.7517 84.1255 18.7005 84.0572 18.7005C83.9719 18.7175 83.9292 18.7773 83.9292 18.8797C83.9122 19.1357 83.9036 19.4002 83.9036 19.6733C83.9036 19.9463 83.9036 20.2279 83.9036 20.5181C83.9036 20.7911 83.9036 21.0898 83.9036 21.4141C83.9036 21.7213 83.9122 22.0199 83.9292 22.3101C83.9292 22.6173 84.006 22.8391 84.1596 22.9757C84.3132 23.1122 84.518 23.2231 84.774 23.3085C84.9106 23.3597 85.0386 23.4194 85.158 23.4877C85.2775 23.5389 85.3372 23.6327 85.3372 23.7693C85.3372 23.8887 85.269 23.9655 85.1324 23.9997C84.9959 24.0509 84.885 24.0765 84.7996 24.0765C84.4754 24.0765 84.2108 24.0594 84.006 24.0253C83.8012 24.0082 83.6135 23.9911 83.4428 23.9741C83.2722 23.957 83.0332 23.9485 82.726 23.9485C82.4359 23.9485 82.1884 23.957 81.9836 23.9741C81.7788 23.9911 81.5655 24.0082 81.3436 24.0253C81.1218 24.0594 80.8402 24.0765 80.4988 24.0765Z" fill="#151313"/>
<path d="M95.2724 24.3581C94.914 24.3581 94.5642 24.2386 94.2228 23.9997C93.8815 23.7778 93.5999 23.4962 93.378 23.1549C93.1562 22.7965 93.0452 22.4466 93.0452 22.1053C93.0452 21.5421 93.1988 21.0898 93.506 20.7485C93.8303 20.4071 94.3252 20.0999 94.9908 19.8269L97.474 18.7773C97.8154 18.6407 98.0202 18.5213 98.0884 18.4189C98.1567 18.2994 98.1994 18.069 98.2164 17.7277L98.2676 16.1661C98.2847 15.7053 98.1738 15.3213 97.9348 15.0141C97.6959 14.7069 97.346 14.5533 96.8852 14.5533C96.6463 14.5533 96.3988 14.6045 96.1428 14.7069C95.9039 14.7922 95.7076 14.8946 95.554 15.0141C95.4687 15.0823 95.409 15.1762 95.3748 15.2957C95.3578 15.4151 95.3492 15.5431 95.3492 15.6797C95.3492 15.765 95.3492 15.8674 95.3492 15.9869C95.3663 16.0893 95.3748 16.1746 95.3748 16.2429C95.3748 16.3453 95.2554 16.4733 95.0164 16.6269C94.7946 16.7634 94.53 16.8914 94.2228 17.0109C93.9327 17.1303 93.6852 17.1901 93.4804 17.1901C93.378 17.1901 93.2927 17.1645 93.2244 17.1133C93.1732 17.045 93.1476 16.9597 93.1476 16.8573C93.1476 16.5842 93.233 16.3026 93.4036 16.0125C93.5914 15.7053 93.8644 15.3981 94.2228 15.0909C94.6324 14.7325 95.0762 14.4167 95.554 14.1437C96.049 13.8535 96.5268 13.6317 96.9876 13.4781C97.4655 13.3245 97.8836 13.2477 98.242 13.2477C98.9588 13.2477 99.5391 13.4951 99.9828 13.9901C100.444 14.4679 100.657 15.0909 100.623 15.8589L100.495 21.6445C100.478 22.0199 100.555 22.3271 100.725 22.5661C100.896 22.805 101.109 22.9245 101.365 22.9245C101.758 22.9245 102.065 22.8221 102.287 22.6173C102.355 22.549 102.415 22.5149 102.466 22.5149C102.551 22.5149 102.62 22.5405 102.671 22.5917C102.739 22.6429 102.773 22.7111 102.773 22.7965C102.773 23.0013 102.654 23.2146 102.415 23.4365C102.125 23.7266 101.809 23.9485 101.468 24.1021C101.143 24.2727 100.828 24.3581 100.52 24.3581C99.6671 24.3581 98.9844 23.8973 98.4724 22.9757H98.3956C97.8324 23.4535 97.3034 23.8034 96.8084 24.0253C96.3135 24.2471 95.8015 24.3581 95.2724 24.3581ZM96.6036 22.9757C96.8938 22.9757 97.1327 22.933 97.3204 22.8477C97.5252 22.7453 97.7044 22.6087 97.858 22.4381C97.9434 22.3527 98.0031 22.2503 98.0372 22.1309C98.0884 21.9943 98.1226 21.7895 98.1396 21.5165L98.1908 20.0573C98.2079 19.8866 98.1994 19.7671 98.1652 19.6989C98.1311 19.6135 98.0628 19.5709 97.9604 19.5709C97.9263 19.5709 97.8751 19.5794 97.8068 19.5965C97.7386 19.6135 97.6447 19.6477 97.5252 19.6989C96.7572 19.989 96.2196 20.2962 95.9124 20.6205C95.6052 20.9277 95.4516 21.269 95.4516 21.6445C95.4516 22.1053 95.5711 22.4466 95.81 22.6685C96.066 22.8733 96.3306 22.9757 96.6036 22.9757Z" fill="#151313"/>
<defs>
<clipPath id="clip0_32_24">
<rect width="32" height="32" fill="white"/>
</clipPath>
</defs>
</svg>
